# xmcd
#
# Track frame offsets: 
#        150
#        12107
#        31312
#        40107
#        57477
#        75583
#        100928
#        125152
#        145020
#        158232
#        175158
#        196030
#
# Disc length: 2844 seconds
#
# Revision: 0
# Processed by: cddbd v1.5.2PL0 Copyright (c) Steve Scherf et al.
# Submitted via: ExactAudioCopy v0.95b4
#
DISCID=940b1a0c
DTITLE=Two High String Band - Moonshine Boogie
DYEAR=2006
DGENRE=Bluegrass
TTITLE0=Nobody Calls from Vegas, Just to Say Hello
TTITLE1=Moonshine Boogie
TTITLE2=Hammerin' On
TTITLE3=Selmerbarn
TTITLE4=Crossing the Devil's Backbone
TTITLE5=Cold World
TTITLE6=Listen to the Rhododendron
TTITLE7=Melinda
TTITLE8=Fiddlehead
TTITLE9=Last Chance Motel
TTITLE10=Meat Glaze
TTITLE11=The Closer
EXTD=
EXTT0=
EXTT1=
EXTT2=
EXTT3=
EXTT4=
EXTT5=
EXTT6=
EXTT7=
EXTT8=
EXTT9=
EXTT10=
EXTT11=
PLAYORDER=
